PathFileType	4	(X/Y/Z)	Patient4_TMGait_0pt7_01_left_03.trc.trc
DataRate	CameraRate	NumFrames	NumMarkers	Units	OrigDataRate	OrigDataStartFrame	OrigNumFrames
83.832335329341	83.832335329341	4	33	mm	83.832335329341	36	       141
Frame#	Time	Sacral			L.Shoulder			Chest			R.Shoulder			Neck			R.ASIS			L.ASIS			R.Thigh.Superior			R.Thigh.Lateral			R.Thigh.Inferior			R.Patella			L.Thigh.Superior			L.Thigh.Lateral			L.Thigh.Inferior			L.Patella			L.Shank.Superior			L.Shank.Lateral			L.Shank.Inferior			R.Shank.Superior			R.Shank.Lateral			R.Shank.Inferior			R.Heel			R.Midfoot.Superior			R.Midfoot.Lateral			R.Toe			L.Heel			L.Midfoot.Lateral			L.Midfoot.Superior			L.Toe			L.Elbow			L.Wrist			R.Elbow			R.Wrist			
		X1	Y1	Z1	X2	Y2	Z2	X3	Y3	Z3	X4	Y4	Z4	X5	Y5	Z5	X6	Y6	Z6	X7	Y7	Z7	X8	Y8	Z8	X9	Y9	Z9	X10	Y10	Z10	X11	Y11	Z11	X12	Y12	Z12	X13	Y13	Z13	X14	Y14	Z14	X15	Y15	Z15	X16	Y16	Z16	X17	Y17	Z17	X18	Y18	Z18	X19	Y19	Z19	X20	Y20	Z20	X21	Y21	Z21	X22	Y22	Z22	X23	Y23	Z23	X24	Y24	Z24	X25	Y25	Z25	X26	Y26	Z26	X27	Y27	Z27	X28	Y28	Z28	X29	Y29	Z29	X30	Y30	Z30	X31	Y31	Z31	X32	Y32	Z32	X33	Y33	Z33	

36	3.867500000000	705.892709578487	997.121070659652	508.160676714458	889.981593657776	1416.597938682411	324.562000760388	987.796413089957	1352.019078477076	491.749034905996	897.945510475278	1436.237231143383	658.333068240467	886.620065508197	1482.841829155608	478.417434206019	922.553534771336	931.863173738221	640.299725958635	929.608960855459	946.540410745248	365.266594618432	936.259486958360	718.849098135749	625.237141890656	833.635110311952	621.530790214801	681.164935341027	911.366219670862	552.711590691706	615.431412724992	890.523569238600	449.500367972708	631.238517433943	1002.415011900244	762.917852725079	401.882136383723	944.658118371990	635.552049739496	327.366534220093	1039.506316772714	572.255143474134	394.538747253519	1052.551896241319	500.561644835585	401.495114235344	1029.556080379069	424.266229302459	390.231592991293	949.355852701579	306.965576281398	329.282409328780	1003.717516700907	196.433798516574	399.855832403354	817.781643615383	382.516810629039	632.943923497430	698.927783694891	331.673793175205	687.432351437249	697.175519507025	222.497892703765	635.465397894283	505.640172850581	123.212547879539	594.454032092057	676.678694650366	112.621002897440	653.304903091229	569.668122075636	88.374642157230	678.374722466858	762.346893676366	33.668841097965	697.188183319826	880.879398724988	37.792598692185	433.326457851910	955.964451554882	35.995584347224	353.130706136851	1037.841577600903	97.233095216428	382.719859318829	1167.091742834421	47.776417640362	355.155120588455	805.162450172947	1070.813098390585	229.426766162937	811.416444452938	811.553528762330	231.862638942280	948.495104191520	1105.575033467699	801.614325318735	1181.298821989742	1128.068150863172	713.998603136534	
37	3.879428571429	705.609869360767	998.690908588977	504.969885858840	891.117982839931	1418.184331392140	321.927524059717	987.939922909785	1353.517649358324	489.554250237682	897.352210558630	1437.839495026514	655.665904903018	886.889981631254	1484.380201234877	475.613552114218	921.868556704874	933.409259352692	637.803416620582	929.735506912952	948.125823068139	362.928760395266	941.369962254768	721.581355947318	623.497356480406	842.123193278203	621.856856920286	679.668401474199	922.317030058075	554.498821946697	614.457376359054	902.894703321980	449.413834985906	631.650164638999	1000.863474811393	762.254932581541	398.137569469419	940.417761623553	635.555695156358	325.416215432535	1034.534245276344	571.260251528055	392.538688384676	1046.638537215712	499.772018955936	399.914273471608	1023.175474116657	423.713988237584	388.762031376353	942.220075033029	306.693619599305	328.449366065435	995.953069223989	196.144400322727	399.288224537449	827.497077472441	383.666042135858	632.466257450057	706.226755048768	337.520930629388	685.949363415533	700.990183166022	228.361216899831	634.442550522286	506.321526550183	138.597153519118	591.539406419616	675.942590905767	117.691380342574	652.347396456514	567.229339678414	99.924992644467	676.070977421237	755.450904720775	33.346532903396	696.738296482447	872.501910968576	37.666488794411	433.247063997394	947.556964477702	35.956694140729	353.013645324147	1029.360340358559	97.246686440790	382.571691561352	1158.666673711143	47.932813348640	354.992356756168	812.146998877629	1071.097410747363	225.070790373574	827.365084901661	812.137952180858	227.711122153746	934.594040224682	1104.061702518876	797.706365031756	1171.722278731795	1107.154742887789	717.420245316733	
38	3.891357142857	705.102588375535	1000.155680826023	501.980148940871	892.338231958234	1419.681866199300	319.427817184872	988.017700848220	1354.875416428751	487.554338368159	896.587165825352	1439.302664187867	653.136964240791	887.119670255224	1485.811872643704	472.918647021178	921.031484253040	934.852335585068	635.526303452351	929.582790843401	949.592969793356	360.783501078138	946.740478866163	724.606165240506	621.814934498331	851.216383652565	622.414243027216	678.331988579174	933.767817469921	556.726801342555	613.461050467479	915.910227010586	449.908869119348	631.822730185012	998.772696208298	761.424505422975	394.532436141840	935.773175252364	635.601859758729	323.414166063269	1029.053683148217	570.251063510910	390.527525209000	1040.180953095496	498.956673779655	398.163809676483	1016.322467361605	423.169777910269	387.169287369743	934.721486540947	306.335478359294	327.579932585190	988.006939586478	195.853708174162	398.662102031476	838.110423666116	385.203366702800	631.823440262296	714.639391867790	343.698357706382	684.306855985732	705.885463396319	234.756982649962	633.143006155790	508.543327563706	154.714382700006	588.328577417767	676.297461069615	123.582844001397	650.933917564317	566.166863444695	112.335589473028	673.417205188827	749.539490182859	33.503961112048	695.835666563050	864.092874835318	37.542907860423	433.190620996064	939.117703913510	35.868034916217	352.915505888999	1020.891801021744	97.166905395242	382.415109795254	1150.245175300971	47.882968884933	354.843519450360	819.001920908590	1071.586633043809	220.642956767667	844.021497179736	813.275136824625	223.627263021298	920.819646427170	1102.957708232756	793.478754980018	1160.642611998938	1085.554060570969	720.909225537935	
39	3.903285714286	704.379748664718	1001.468249271119	499.208215015482	893.567381645767	1421.049395870938	317.092214132793	988.007780765208	1356.060922045236	485.763385702864	895.654112445494	1440.583499897298	650.784788210678	887.296685120901	1487.111656459952	470.381930074632	920.082486671072	936.160596063760	633.431143836713	929.155958536681	950.935294357870	358.783403724132	952.227964491247	727.914439932875	620.127897420554	860.718305976602	623.277697014153	677.130767769524	945.462331836017	559.441059128409	612.404018134475	929.350622355214	451.042161474754	631.728274542263	996.262756655886	760.524974193556	391.109116341738	930.873863504796	635.711118499105	321.383917079266	1023.231518247684	569.265975634209	388.506317917064	1033.358068207216	498.150589345042	396.291083415794	1009.173941743858	422.648031759571	385.505296559192	927.023379605236	305.936025327515	326.670131609182	979.963207277293	195.569888368080	398.001463850788	849.425089666895	387.158175523839	631.006808103642	723.998409420794	350.118413138950	682.520686912190	711.802278283617	241.569272250561	631.585963763831	512.279420479495	171.106156375708	584.958501940753	677.822646415037	130.166124363559	649.046841264780	566.612583889938	125.213405427408	670.474331585479	744.941792648972	34.292960376946	694.354044299480	855.667458269278	37.438132742019	433.141134082292	930.663952691312	35.752879371233	352.825986274447	1012.451786621436	97.017589558882	382.252846215997	1141.838824034637	47.660302197556	354.704472054824	825.760668030650	1072.207089324809	216.170087342404	861.307566498298	814.965777878003	219.637329973356	907.320605958461	1102.200852709775	789.049409349393	1147.920463583425	1063.513649185496	724.414280697464	
